# Blender v2.78 (sub 0) OBJ File: 'arm1.blend'
# www.blender.org
mtllib arm1.mtl
o Cylinder
v 1.000000 0.200000 -0.100000
v 1.000000 -0.200000 -0.100000
v 1.000000 0.200000 0.100000
v 1.000000 -0.200000 0.100000
v -1.000000 0.200000 -0.100000
v -1.000000 -0.200000 -0.100000
v -1.000000 0.200000 0.100000
v -1.000000 -0.200000 0.100000
vn 0.0000 1.0000 0.0000
vn 0.0000 0.0000 1.0000
vn 0.0000 0.0000 -1.0000
vn 0.0000 -1.0000 0.0000
vn 1.0000 0.0000 0.0000
vn -1.0000 0.0000 0.0000
usemtl None
s off
f 5//1 3//1 1//1
f 3//2 8//2 4//2
f 5//3 2//3 6//3
f 2//4 8//4 6//4
f 1//5 4//5 2//5
f 7//6 6//6 8//6
f 5//1 7//1 3//1
f 3//2 7//2 8//2
f 5//3 1//3 2//3
f 2//4 4//4 8//4
f 1//5 3//5 4//5
f 7//6 5//6 6//6
